<?xml version="1.0" encoding="utf-8"?>
<!-- Generator: Adobe Illustrator 27.5.0, SVG Export Plug-In . SVG Version: 6.00 Build 0)  -->
<svg version="1.1" id="Layer_1" xmlns="http://www.w3.org/2000/svg" xmlns:xlink="http://www.w3.org/1999/xlink" x="0px" y="0px"
	 viewBox="0 0 1000 1000" style="enable-background:new 0 0 1000 1000;" xml:space="preserve">
<rect x="0" y="1" style="fill-rule:evenodd;clip-rule:evenodd;fill:#FFFFFF;" width="1000" height="1000"/>
<path style="opacity:0.42;fill-rule:evenodd;clip-rule:evenodd;fill:#CCCCFF;" d="M384.125,230.885
	c0,0-128.126,26.561-101.563,154.687c26.563,128.126-135.938,254.686,34.374,357.813c170.314,103.127,176.15-28.124,334.17-76.562
	c158.019-48.437,273.536-183.602,111.872-290.239C601.314,269.947,545.063,190.26,384.125,230.885"/>
<g>
	<defs>
		<path id="SVGID_19_" d="M418.167,329.349c65.001,0,117.698,52.693,117.698,117.697c0,65.001-52.697,117.697-117.698,117.697
			c-65.003,0-117.699-52.696-117.699-117.697C300.468,382.043,353.164,329.349,418.167,329.349"/>
	</defs>
	<clipPath id="SVGID_00000163046325965471618010000004454935030267065533_">
		<use xlink:href="#SVGID_19_"  style="overflow:visible;"/>
	</clipPath>
	<linearGradient id="SVGID_1_" gradientUnits="userSpaceOnUse" x1="414.4923" y1="580.516" x2="421.8256" y2="314.0989">
		<stop  offset="0" style="stop-color:#F39C12"/>
		<stop  offset="1" style="stop-color:#F9D92E"/>
	</linearGradient>
	
		<rect x="300.468" y="329.349" style="clip-path:url(#SVGID_00000163046325965471618010000004454935030267065533_);fill:url(#SVGID_1_);" width="235.397" height="235.393"/>
</g>
<g>
	<defs>
		<path id="SVGID_22_" d="M424.978,339.554c55.429,0,100.36,44.934,100.36,100.361c0,55.429-44.931,100.363-100.36,100.363
			s-100.361-44.934-100.361-100.363C324.617,384.488,369.549,339.554,424.978,339.554"/>
	</defs>
	<clipPath id="SVGID_00000150096296403065434500000011578185172597421497_">
		<use xlink:href="#SVGID_22_"  style="overflow:visible;"/>
	</clipPath>
	
		<linearGradient id="SVGID_00000090276589423315368390000006441563372695820690_" gradientUnits="userSpaceOnUse" x1="477.7297" y1="343.5781" x2="376.0628" y2="529.2449">
		<stop  offset="0" style="stop-color:#EAA416"/>
		<stop  offset="0.52" style="stop-color:#F39C12"/>
		<stop  offset="1" style="stop-color:#F9D92E"/>
	</linearGradient>
	
		<rect x="324.617" y="339.554" style="clip-path:url(#SVGID_00000150096296403065434500000011578185172597421497_);fill:url(#SVGID_00000090276589423315368390000006441563372695820690_);" width="200.721" height="200.724"/>
</g>
<path style="fill-rule:evenodd;clip-rule:evenodd;fill:#FEF163;" d="M435.938,372.4H414.02v25.398
	c0.021-0.003-25.228,4.169-25.228,25.947c0,33.753,51.026,19.597,51.026,33.442c0,4.707-4.24,7.693-15.543,7.693
	c-10.361,0-21.824-3.298-29.36-8.166l-8.163,17.584c6.146,4.044,16.303,7.335,27.269,8.572v24.56h21.918v-25.075l-0.538,0.094
	c17.799-3.012,27.81-12.89,27.81-25.894c0-33.283-51.026-19.311-51.026-33.753c0-4.396,4.71-7.853,15.699-7.853
	c7.694,0,16.016,1.571,24.336,6.282l8.166-17.428c-6.207-3.664-15.281-6.059-24.447-6.971V372.4z"/>
<path style="fill-rule:evenodd;clip-rule:evenodd;fill:#FEF163;" d="M509.655,493.806c-17.23,30.465-49.92,51.033-87.416,51.033
	c-55.427,0-100.361-44.933-100.361-100.363c0-19.833,5.755-38.323,15.683-53.892c-8.237,14.57-12.945,31.398-12.945,49.33
	c0,55.429,44.933,100.363,100.361,100.363C460.571,540.278,491.835,521.746,509.655,493.806"/>
<g>
	<defs>
		<path id="SVGID_25_" d="M504.034,276.663c65.003,0,117.697,52.696,117.697,117.699c0,65.001-52.694,117.697-117.697,117.697
			c-65.003,0-117.698-52.696-117.698-117.697C386.336,329.358,439.03,276.663,504.034,276.663"/>
	</defs>
	<clipPath id="SVGID_00000137811250293603181050000012292186368322085024_">
		<use xlink:href="#SVGID_25_"  style="overflow:visible;"/>
	</clipPath>
	
		<linearGradient id="SVGID_00000134214630768054381550000017633425409692675759_" gradientUnits="userSpaceOnUse" x1="500.3589" y1="527.8502" x2="507.6922" y2="261.4328">
		<stop  offset="0" style="stop-color:#F39C12"/>
		<stop  offset="1" style="stop-color:#F9D92E"/>
	</linearGradient>
	
		<rect x="386.336" y="276.663" style="clip-path:url(#SVGID_00000137811250293603181050000012292186368322085024_);fill:url(#SVGID_00000134214630768054381550000017633425409692675759_);" width="235.394" height="235.396"/>
</g>
<g>
	<defs>
		<path id="SVGID_28_" d="M510.844,286.869c55.429,0,100.364,44.934,100.364,100.361c0,55.429-44.934,100.363-100.364,100.363
			c-55.427,0-100.361-44.933-100.361-100.363C410.483,331.804,455.417,286.869,510.844,286.869"/>
	</defs>
	<clipPath id="SVGID_00000007427738911285090830000017387678005596027283_">
		<use xlink:href="#SVGID_28_"  style="overflow:visible;"/>
	</clipPath>
	
		<linearGradient id="SVGID_00000144312519121847649600000004042132923095738803_" gradientUnits="userSpaceOnUse" x1="563.6373" y1="290.8994" x2="461.887" y2="476.5663">
		<stop  offset="0" style="stop-color:#EAA416"/>
		<stop  offset="0.52" style="stop-color:#F39C12"/>
		<stop  offset="1" style="stop-color:#F9D92E"/>
	</linearGradient>
	
		<rect x="410.483" y="286.869" style="clip-path:url(#SVGID_00000007427738911285090830000017387678005596027283_);fill:url(#SVGID_00000144312519121847649600000004042132923095738803_);" width="200.724" height="200.724"/>
</g>
<path style="fill-rule:evenodd;clip-rule:evenodd;fill:#FEF163;" d="M521.805,319.716h-21.917v25.398
	c0.019-0.003-25.231,4.169-25.231,25.947c0,33.753,51.028,19.597,51.028,33.442c0,4.707-4.24,7.691-15.543,7.691
	c-10.363,0-21.824-3.295-29.36-8.163l-8.166,17.584c6.148,4.044,16.306,7.335,27.272,8.573v24.56h21.917v-25.075l-0.537,0.094
	c17.797-3.012,27.811-12.89,27.811-25.894c0-33.283-51.028-19.311-51.028-33.753c0-4.397,4.71-7.852,15.701-7.852
	c7.694,0,16.013,1.571,24.336,6.282l8.163-17.428c-6.205-3.667-15.278-6.059-24.446-6.971V319.716z"/>
<path style="fill-rule:evenodd;clip-rule:evenodd;fill:#FEF163;" d="M595.522,441.121c-17.23,30.466-49.918,51.033-87.416,51.033
	c-55.428,0-100.361-44.933-100.361-100.363c0-19.833,5.754-38.323,15.685-53.892c-8.239,14.57-12.948,31.398-12.948,49.33
	c0,55.429,44.934,100.363,100.361,100.363C546.44,487.593,577.704,469.062,595.522,441.121"/>
<path style="fill-rule:evenodd;clip-rule:evenodd;fill:#FEF163;" d="M550.212,502.648c-14.178,6.054-29.785,9.411-46.178,9.411
	c-65.001,0-117.698-52.696-117.698-117.697c0-49.813,30.948-92.396,74.658-109.578c-42.047,17.955-71.515,59.679-71.515,108.286
	c0,65.001,52.693,117.697,117.697,117.697C522.365,510.766,536.882,507.887,550.212,502.648"/>
<g>
	<defs>
		<path id="SVGID_31_" d="M634.356,375.738c65.003,0,117.697,52.697,117.697,117.699c0,65.001-52.693,117.698-117.697,117.698
			s-117.697-52.697-117.697-117.698C516.659,428.435,569.353,375.738,634.356,375.738"/>
	</defs>
	<clipPath id="SVGID_00000109743745647830893530000011881056650182523305_">
		<use xlink:href="#SVGID_31_"  style="overflow:visible;"/>
	</clipPath>
	
		<linearGradient id="SVGID_00000096054644164745440450000007859576110158187697_" gradientUnits="userSpaceOnUse" x1="630.6817" y1="626.9335" x2="638.015" y2="360.5175">
		<stop  offset="0" style="stop-color:#F39C12"/>
		<stop  offset="1" style="stop-color:#F9D92E"/>
	</linearGradient>
	
		<rect x="516.659" y="375.738" style="clip-path:url(#SVGID_00000109743745647830893530000011881056650182523305_);fill:url(#SVGID_00000096054644164745440450000007859576110158187697_);" width="235.394" height="235.397"/>
</g>
<g>
	<defs>
		<path id="SVGID_34_" d="M641.166,385.945c55.429,0,100.363,44.934,100.363,100.361c0,55.429-44.934,100.363-100.363,100.363
			c-55.427,0-100.36-44.933-100.36-100.363C540.806,430.879,585.74,385.945,641.166,385.945"/>
	</defs>
	<clipPath id="SVGID_00000183249928051569540290000011524189546891075252_">
		<use xlink:href="#SVGID_34_"  style="overflow:visible;"/>
	</clipPath>
	
		<linearGradient id="SVGID_00000104702294382454520430000007287112647547133082_" gradientUnits="userSpaceOnUse" x1="693.9594" y1="389.9769" x2="592.209" y2="575.6437">
		<stop  offset="0" style="stop-color:#EAA416"/>
		<stop  offset="0.52" style="stop-color:#F39C12"/>
		<stop  offset="1" style="stop-color:#F9D92E"/>
	</linearGradient>
	
		<rect x="540.806" y="385.945" style="clip-path:url(#SVGID_00000183249928051569540290000011524189546891075252_);fill:url(#SVGID_00000104702294382454520430000007287112647547133082_);" width="200.723" height="200.724"/>
</g>
<path style="fill-rule:evenodd;clip-rule:evenodd;fill:#FEF163;" d="M652.127,418.792h-21.917v25.398
	c0.019-0.003-25.231,4.169-25.231,25.946c0,33.754,51.027,19.598,51.027,33.442c0,4.708-4.238,7.694-15.542,7.694
	c-10.362,0-21.824-3.297-29.359-8.166l-8.167,17.584c6.147,4.044,16.307,7.334,27.272,8.572v24.559h21.917v-25.074l-0.536,0.094
	c17.797-3.012,27.807-12.891,27.807-25.894c0-33.284-51.026-19.312-51.026-33.754c0-4.396,4.71-7.852,15.702-7.852
	c7.693,0,16.013,1.571,24.335,6.281l8.164-17.428c-6.206-3.666-15.279-6.059-24.447-6.971V418.792z"/>
<path style="fill-rule:evenodd;clip-rule:evenodd;fill:#FEF163;" d="M725.845,540.197c-17.23,30.466-49.918,51.033-87.416,51.033
	c-55.427,0-100.361-44.934-100.361-100.364c0-19.833,5.754-38.322,15.685-53.891c-8.239,14.57-12.947,31.398-12.947,49.33
	c0,55.429,44.933,100.363,100.36,100.363C676.763,586.669,708.026,568.137,725.845,540.197"/>
<path style="opacity:0.27;fill-rule:evenodd;clip-rule:evenodd;fill:#DF7C09;" d="M405.459,330.027
	c-2.032,0.217-4.056,0.487-6.073,0.813c-24.139,39.045-25.491,88.035-3.538,128.351c21.954,40.313,63.836,65.761,109.733,66.668
	c4.087-4.531,7.819-9.371,11.159-14.478c-45.241,4.947-89.279-16.637-113.083-55.429
	C379.854,417.162,380.554,368.12,405.459,330.027"/>
<path style="opacity:0.31;fill-rule:evenodd;clip-rule:evenodd;fill:#DF7C09;" d="M517.996,511.236
	c-4.818-31.523,3.359-63.649,22.658-89.036c19.302-25.387,48.073-41.853,79.737-45.64c-33.452,1.452-64.718,17.022-86.039,42.838
	c-21.321,25.819-30.697,59.466-25.8,92.589C511.708,511.863,514.859,511.61,517.996,511.236"/>
<path style="fill-rule:evenodd;clip-rule:evenodd;fill:#FEF163;" d="M648.142,610.324c-4.521,0.529-9.123,0.811-13.786,0.811
	c-65.001,0-117.697-52.697-117.697-117.698c0-61.639,47.388-112.204,107.719-117.272c-58.505,6.827-103.912,56.552-103.912,116.889
	c0,65.001,52.697,117.697,117.699,117.697C641.528,610.751,644.851,610.601,648.142,610.324"/>
<polygon style="fill-rule:evenodd;clip-rule:evenodd;fill:#FA5C98;" points="793.501,314.521 769.569,363.183 745.637,411.847 
	731.526,387.405 346.769,609.547 314.636,553.889 699.393,331.749 685.283,307.309 739.392,310.917 "/>
<path style="fill-rule:evenodd;clip-rule:evenodd;fill:#15B0F8;" d="M277.793,542.064l36.843,11.825l32.133,55.658l6.73,31.03
	c0,0-26.109,2.078-40.079,23.735c0,0-64.269-61.474-53.79-91.512C270.108,542.763,277.793,542.064,277.793,542.064"/>
<path style="fill-rule:evenodd;clip-rule:evenodd;fill:#4A1877;" d="M353.499,640.577l8.799,16.767v30.019l-43.634,18.862
	l10.828,31.437l-20.611,8.731l-31.433-46.456l35.972-35.624C327.39,642.656,353.499,640.577,353.499,640.577"/>
<polygon style="fill-rule:evenodd;clip-rule:evenodd;fill:#4A1877;" points="313.42,664.312 247.063,697.14 224.36,744.292 
	245.528,749.461 261.733,717.049 284.863,710.895 277.448,699.936 "/>
<path style="fill-rule:evenodd;clip-rule:evenodd;fill:#01052D;" d="M197.055,761.737c0,0-2.095,5.282,12.923,5.282
	c15.019,0,27.243,0,27.243,0l4.715-10.871l-16.764-4.712C225.173,751.436,196.531,751.782,197.055,761.737"/>
<path style="fill-rule:evenodd;clip-rule:evenodd;fill:#01052D;" d="M332.4,742.7l7.25,9.867l-15.282,14.453h-26.547
	c0,0-2.093-10.172,15.893-11.568L332.4,742.7z"/>
<path style="fill-rule:evenodd;clip-rule:evenodd;fill:#15B0F8;" d="M289.894,575.045c0,0-2.794-21.657,16.418-32.483l71.253,2.794
	l5.906,43.002l-17.664,10.198l-6.404-33.99L289.894,575.045z"/>
<path style="fill-rule:evenodd;clip-rule:evenodd;fill:#FFCCBC;" d="M357.954,603.089c0,0,8.44,9.855,19.182,6.973
	c10.738-2.883,8.118-13.623,8.118-13.623l-3.163-7.282l-16.285,9.399L357.954,603.089z"/>
<path style="fill-rule:evenodd;clip-rule:evenodd;fill:#FFCCBC;" d="M199.885,545.97l17.114,13.273l9.08,17.114l6.288-10.129
	c0,0,9.081,9.779,15.368,7.684c6.286-2.095,12.924-21.307,12.924-32.135c0-10.827-11.178-25.496-20.958-27.941
	C229.923,511.392,205.124,518.028,199.885,545.97"/>
<path style="fill-rule:evenodd;clip-rule:evenodd;fill:#01052D;" d="M159.022,542.479c0,0,16.063,21.302,40.863,3.492
	c0,0,16.417-17.813,34.231-5.239c0,0-9.43-10.129-4.89-17.813c4.54-7.682,19.911,8.731,14.672,17.463l16.632,4.212
	c0,0,16.897-18.881,1.178-33.55c-15.716-14.669-37.37-30.737-52.741-12.224C193.599,517.331,176.835,544.225,159.022,542.479"/>
<polygon style="fill-rule:evenodd;clip-rule:evenodd;fill:#FFCCBC;" points="230.794,745.863 227.067,751.966 241.937,756.148 
	245.528,749.461 "/>
<polygon style="fill-rule:evenodd;clip-rule:evenodd;fill:#FFCCBC;" points="329.493,737.661 332.4,742.7 319.127,751.756 
	315.352,743.651 "/>
<path style="fill-rule:evenodd;clip-rule:evenodd;fill:#FFCCBC;" d="M254.677,565.492h0.002l6.052,4.23
	c4.119-11.22,7.762-17.893,10.611-21.859l-10.812-3.27h-0.003C259.97,551.061,257.658,559.348,254.677,565.492"/>
<path style="fill-rule:evenodd;clip-rule:evenodd;fill:#1A85F8;" d="M323.892,569.921l-33.998,5.123
	c33.61-0.05,39.194,15.238,56.875,34.503L323.892,569.921z"/>
<path style="fill-rule:evenodd;clip-rule:evenodd;fill:#FFAC9C;" d="M260.53,544.593c-0.56,6.468-2.872,14.755-5.852,20.899
	l6.052,4.23C264.038,553.419,260.53,544.593,260.53,544.593"/>
<path style="fill-rule:evenodd;clip-rule:evenodd;fill:#37DBD0;" d="M482.45,574.23h61.473c3.843,0,6.985,3.142,6.985,6.985v185.804
	h-75.444V581.215C475.464,577.371,478.607,574.23,482.45,574.23"/>
<path style="fill-rule:evenodd;clip-rule:evenodd;fill:#37DBD0;" d="M595.614,514.853h61.474c3.843,0,6.987,3.139,6.987,6.985
	v245.181h-75.447V521.838C588.629,517.992,591.77,514.853,595.614,514.853"/>
<path style="fill-rule:evenodd;clip-rule:evenodd;fill:#37DBD0;" d="M708.78,456.157h61.474c3.843,0,6.985,3.139,6.985,6.985
	v303.877h-75.444V463.142C701.795,459.296,704.936,456.157,708.78,456.157"/>
<path style="fill-rule:evenodd;clip-rule:evenodd;fill:#37DBD0;" d="M369.284,618.24h61.474c3.843,0,6.985,3.142,6.985,6.985
	v141.794h-75.444V625.225C362.299,621.381,365.44,618.24,369.284,618.24"/>
<path style="fill-rule:evenodd;clip-rule:evenodd;fill:#DA3C78;" d="M365.807,598.555l-6.404-33.99l-35.511,5.356l6.81,11.797
	C351.558,557.427,365.807,598.555,365.807,598.555"/>
<path style="fill-rule:evenodd;clip-rule:evenodd;fill:#27CBC0;" d="M537.94,574.23h5.982c3.843,0,6.987,3.144,6.987,6.985v185.804
	h-75.444v-15.012h62.476V574.23z"/>
<path style="fill-rule:evenodd;clip-rule:evenodd;fill:#27CBC0;" d="M651.107,514.853h5.981c3.843,0,6.985,3.142,6.985,6.985
	v245.181h-75.444v-15.012h62.478V514.853z"/>
<path style="fill-rule:evenodd;clip-rule:evenodd;fill:#27CBC0;" d="M764.271,456.157h5.981c3.843,0,6.985,3.142,6.985,6.985
	v303.877h-75.442v-15.012h62.476V456.157z"/>
<path style="fill-rule:evenodd;clip-rule:evenodd;fill:#27CBC0;" d="M424.777,618.24h5.978c3.843,0,6.988,3.144,6.988,6.985v141.794
	h-75.444v-15.012h62.478V618.24z"/>
<path style="fill-rule:evenodd;clip-rule:evenodd;fill:#47EBE0;" d="M482.45,574.23h61.472c3.843,0,6.987,3.144,6.987,6.985v4.549
	h-57.666c-3.843,0-6.987,3.143-6.987,6.986v174.269h-10.791V581.215C475.464,577.374,478.607,574.23,482.45,574.23"/>
<path style="fill-rule:evenodd;clip-rule:evenodd;fill:#47EBE0;" d="M595.616,514.853h61.472c3.843,0,6.985,3.142,6.985,6.985v4.547
	h-57.666c-3.843,0-6.985,3.144-6.985,6.985v233.649h-10.793V521.838C588.629,517.995,591.773,514.853,595.616,514.853"/>
<path style="fill-rule:evenodd;clip-rule:evenodd;fill:#47EBE0;" d="M708.78,456.157h61.472c3.843,0,6.985,3.142,6.985,6.985v4.548
	H719.57c-3.843,0-6.985,3.144-6.985,6.985v292.344h-10.791V463.142C701.795,459.299,704.936,456.157,708.78,456.157"/>
<path style="fill-rule:evenodd;clip-rule:evenodd;fill:#47EBE0;" d="M369.284,618.24h61.472c3.843,0,6.988,3.144,6.988,6.985v4.548
	h-57.666c-3.843,0-6.988,3.144-6.988,6.987v130.259h-10.791V625.225C362.299,621.384,365.443,618.24,369.284,618.24"/>
<path style="fill-rule:evenodd;clip-rule:evenodd;fill:#FA9BC7;" d="M332.476,543.59l366.917-211.84l3.923,6.796L347.171,544.164
	L332.476,543.59z M793.501,314.521l-3.111,6.327l-47.074-3.135l-54.108-3.607l-3.924-6.797l54.109,3.608L793.501,314.521z"/>
</svg>
